Coordinates
version=1
nRows=5
nColumns=40
inDegrees=yes

Units are S.I. units (second, meters, Newtons, ...)
Angles are in degrees.

endheader
time	pelvis_tilt	pelvis_list	pelvis_rotation	pelvis_tx	pelvis_ty	pelvis_tz	hip_flexion_r	hip_adduction_r	hip_rotation_r	knee_angle_r	knee_angle_r_beta	ankle_angle_r	subtalar_angle_r	mtp_angle_r	hip_flexion_l	hip_adduction_l	hip_rotation_l	knee_angle_l	knee_angle_l_beta	ankle_angle_l	subtalar_angle_l	mtp_angle_l	lumbar_extension	lumbar_bending	lumbar_rotation	arm_flex_r	arm_add_r	arm_rot_r	elbow_flex_r	pro_sup_r	wrist_flex_r	wrist_dev_r	arm_flex_l	arm_add_l	arm_rot_l	elbow_flex_l	pro_sup_l	wrist_flex_l	wrist_dev_l
     44.05500000	     -4.00139365	     -3.66600852	      7.01121177	      1.10396390	      0.91323322	      0.59999337	     16.36507003	      4.90872921	     -4.64067435	     31.15570373	     31.15570373	     18.69220580	    -10.48262113	      0.09752968	     34.82256698	    -14.17263944	      7.89294154	     62.51588754	     62.51588754	      7.87049912	    -19.38778639	     17.68288509	    -12.66707863	      5.25707923	     -0.30006769	     39.67652367	    -20.87512625	     -7.08358657	     93.59881236	     44.67946233	      0.00000000	      0.00000000	    -14.86179376	    -10.11881610	     21.15032162	     27.07540787	     44.76667633	      0.00000000	      0.00000000
     44.07571429	     -3.88269842	     -3.39083652	      7.64243870	      1.10329132	      0.91299681	      0.59979885	     16.08790319	      4.60896070	     -4.88442422	     31.44239430	     31.44239430	     19.04926988	    -10.82720355	      0.17002579	     34.93302454	    -13.76139180	      7.54151546	     59.78078435	     59.78078435	      9.12115044	    -19.36109933	     17.78287132	    -12.55275281	      5.04784291	     -0.05838085	     42.46841731	    -20.57540655	     -6.72210609	     95.26666241	     44.64052103	      0.00000000	      0.00000000	    -15.73341859	     -9.85557206	     22.05550360	     27.27370117	     44.60718287	      0.00000000	      0.00000000
     44.09642857	     -3.85749012	     -3.10808027	      8.28430893	      1.10243013	      0.91319758	      0.59920236	     15.78991936	      4.25028385	     -5.20402353	     31.50742210	     31.50742210	     19.40567064	    -10.98855392	      0.63061871	     34.83674148	    -13.23229124	      7.30288538	     56.37359565	     56.37359565	      9.41164932	    -19.28634986	     16.25592331	    -12.34638128	      4.86426441	      0.18583719	     45.34108632	    -20.37623267	     -5.92051530	     96.64732065	     44.69818292	      0.00000000	      0.00000000	    -16.77806661	    -10.64685102	     27.68019447	     29.28071186	     43.78612258	      0.00000000	      0.00000000
     44.11714286	     -3.90991508	     -2.73704578	      8.88295333	      1.10146219	      0.91392972	      0.59815749	     15.40145258	      3.73326545	     -5.59301879	     31.27269098	     31.27269098	     19.51931252	    -10.94038066	      0.58733237	     34.55328918	    -12.45419368	      7.23348624	     52.56734195	     52.56734195	      9.67995053	    -19.11526761	     16.02794934	    -12.14117048	      4.57210121	      0.56053287	     47.98468934	    -20.24634349	     -5.51474464	     98.31138678	     44.65125400	      0.00000000	      0.00000000	    -17.27272538	    -10.21521095	     28.03212060	     29.21038436	     43.74555330	      0.00000000	      0.00000000
     44.13785714	     -4.14587189	     -2.40610793	      9.45633952	      1.10033052	      0.91487564	      0.59682976	     15.09776170	      3.22504978	     -5.96785858	     30.80437371	     30.80437371	     19.50819212	    -10.86406406	      0.63520912	     34.29621797	    -11.63210004	      7.33348954	     48.50196357	     48.50196357	      9.45103680	    -18.73310042	     15.92383614	    -11.72623214	      4.30298844	      1.05688470	     50.55926515	    -20.25197719	     -5.23168449	     99.51310828	     44.61907347	      0.00000000	      0.00000000	    -17.69267804	     -9.86384999	     28.26495507	     29.25089760	     43.71452361	      0.00000000	      0.00000000
